<?xml version="1.0" encoding="utf-8"?><svg viewBox="0 0 330 330" xmlns="http://www.w3.org/2000/svg" xmlns:xlink="http://www.w3.org/1999/xlink"><style>:root>svg{display:none}:root>svg:target{display:block}</style><svg viewBox="0 0 70 70" id="accept_icon" xmlns="http://www.w3.org/2000/svg"><path d="M35 0A35 35 0 000 35a35 35 0 0035 35 35 35 0 0035-35A35 35 0 0035 0zm0 6.774A28.211 28.211 0 0163.226 35 28.211 28.211 0 0135 63.226 28.211 28.211 0 016.774 35 28.211 28.211 0 0135 6.774zm19.787 18.384l-3.181-3.206a1.693 1.693 0 00-2.395-.01L29.262 41.731l-8.438-8.507a1.693 1.693 0 00-2.395-.01l-3.206 3.181a1.694 1.694 0 00-.01 2.4l12.812 12.911a1.693 1.693 0 002.395.01l24.357-24.162a1.694 1.694 0 00.01-2.396z"/></svg><svg viewBox="0 0 330 330" id="arrow_up" xmlns="http://www.w3.org/2000/svg"><path d="M325.606 229.393l-150.004-150a14.997 14.997 0 00-21.213.001l-149.996 150c-5.858 5.858-5.858 15.355 0 21.213 5.857 5.857 15.355 5.858 21.213 0l139.39-139.393 139.397 139.393A14.953 14.953 0 00315 255a14.95 14.95 0 0010.607-4.394c5.857-5.858 5.857-15.355-.001-21.213z"/></svg><svg viewBox="0 0 70 62.427" id="delivery_icon" xmlns="http://www.w3.org/2000/svg"><path d="M1.466 42.919h3.95C8.074 55.445 22.068 62.427 35 62.427c12.952 0 26.928-7 29.584-19.509h3.949a1.463 1.463 0 001.034-2.5l-8.172-8.17a1.463 1.463 0 00-2.069 0l-8.173 8.173a1.463 1.463 0 001.034 2.5h4.286c-2.474 6.623-10.359 10.558-17.572 11.463v-23.17h6.34a1.463 1.463 0 001.463-1.463v-4.878a1.463 1.463 0 00-1.463-1.463h-6.34v-.667a11.709 11.709 0 007.8-11.037A11.744 11.744 0 0035.167 0a11.705 11.705 0 00-11.872 11.7 11.71 11.71 0 007.8 11.038v.667h-6.34a1.463 1.463 0 00-1.463 1.463v4.877a1.463 1.463 0 001.466 1.469h6.34v23.168c-7.186-.9-15.1-4.838-17.572-11.463h4.285a1.463 1.463 0 001.034-2.5l-8.172-8.171a1.463 1.463 0 00-2.069 0L.433 40.421a1.463 1.463 0 001.033 2.498zM35 7.8a3.906 3.906 0 013.9 3.9 3.906 3.906 0 01-3.9 3.9 3.906 3.906 0 01-3.9-3.9A3.906 3.906 0 0135 7.8z"/></svg><svg viewBox="0 0 61.25 70" id="documents_icon" xmlns="http://www.w3.org/2000/svg"><path d="M17.5 25.156a7.665 7.665 0 017.656-7.656H43.75V7.656a3.281 3.281 0 00-3.281-3.281H29.448A8.753 8.753 0 0021.875 0 8.753 8.753 0 0014.3 4.375H3.281A3.281 3.281 0 000 7.656v45.938a3.281 3.281 0 003.281 3.281H17.5zm4.375-19.687a3.281 3.281 0 013.281 3.281 3.281 3.281 0 01-3.281 3.281 3.281 3.281 0 01-3.281-3.281 3.281 3.281 0 013.281-3.281zm25.156 33.906a3.291 3.291 0 01-3.281-3.281V21.875H25.156a3.281 3.281 0 00-3.281 3.281v41.563A3.281 3.281 0 0025.156 70h32.813a3.281 3.281 0 003.281-3.281V39.375zm14.219-5.2a3.272 3.272 0 00-.961-2.32l-9.015-9.019a3.272 3.272 0 00-2.32-.961h-.828V35H61.25z"/></svg><svg viewBox="0 0 39.367 70" id="dollar_icon" xmlns="http://www.w3.org/2000/svg"><path d="M28.597 31.91l-14.766-4.32a4.044 4.044 0 01-2.9-3.869 4.032 4.032 0 014.033-4.033h9.064a8.345 8.345 0 014.676 1.436 2.132 2.132 0 002.666-.273l4.759-4.651a2.216 2.216 0 00-.246-3.35 19.332 19.332 0 00-11.826-4.1V2.188A2.194 2.194 0 0021.87 0h-4.373a2.194 2.194 0 00-2.188 2.187V8.75h-.342A14.98 14.98 0 00.063 25.1C.637 31.4 5.45 36.531 11.52 38.309l14.014 4.1a4.033 4.033 0 01-1.135 7.9h-9.065a8.346 8.346 0 01-4.676-1.436 2.131 2.131 0 00-2.661.277L3.235 53.8a2.216 2.216 0 00.246 3.35 19.332 19.332 0 0011.826 4.1v6.563A2.194 2.194 0 0017.497 70h4.375a2.194 2.194 0 002.188-2.187v-6.59c6.371-.123 12.346-3.91 14.451-9.939a15.013 15.013 0 00-9.914-19.374z"/></svg><svg viewBox="0 0 70 70" id="experience_icon" xmlns="http://www.w3.org/2000/svg"><path d="M62.7 34.989l6.287-6.153a3.257 3.257 0 00-1.458-5.515l-8.565-2.186 2.415-8.479a3.312 3.312 0 00-4.055-4.057l-8.474 2.416-2.186-8.565A3.28 3.28 0 0041.151.991L35 7.324 28.849.988a3.28 3.28 0 00-5.513 1.462l-2.185 8.568L12.675 8.6a3.312 3.312 0 00-4.055 4.056l2.415 8.479-8.566 2.186a3.257 3.257 0 00-1.458 5.515L7.3 34.989l-6.289 6.153a3.257 3.257 0 001.458 5.515l8.565 2.186-2.415 8.479a3.312 3.312 0 004.055 4.057l8.476-2.416 2.185 8.568a3.251 3.251 0 005.513 1.459L35 62.701l6.151 6.289a3.264 3.264 0 005.513-1.459l2.185-8.568 8.476 2.415a3.312 3.312 0 004.055-4.056l-2.414-8.479 8.565-2.186a3.257 3.257 0 001.458-5.515z"/></svg><svg viewBox="0 0 10.712 20" id="facebook" xmlns="http://www.w3.org/2000/svg"><path d="M10.01 11.25l.555-3.62H7.092V5.281a1.81 1.81 0 012.041-1.955h1.579V.244a19.256 19.256 0 00-2.8-.245c-2.86 0-4.73 1.734-4.73 4.872V7.63H0v3.62h3.179V20h3.913v-8.75z"/></svg><svg viewBox="0 0 48.316 50.394" id="googke" xmlns="http://www.w3.org/2000/svg"><path d="M25.416 34.394a13.131 13.131 0 01-9.676-3.718 12.805 12.805 0 01-3.737-9.479 12.76 12.76 0 013.828-9.351A12.93 12.93 0 0125.379 8a16.142 16.142 0 015.614.857 14.935 14.935 0 014.412 2.643l-3.537 4.265a12.121 12.121 0 00-3.1-1.969 9.306 9.306 0 00-3.573-.62A6.753 6.753 0 0020 15.527a8.142 8.142 0 00-2.133 5.669 8.107 8.107 0 002.169 5.8 7.309 7.309 0 005.56 2.3 8.88 8.88 0 005.286-1.531v-3.646h-5.649V19.27h11.083v11.083a16.388 16.388 0 01-10.9 4.041z"/></svg><svg viewBox="0 0 17.51 17.506" id="instagram" xmlns="http://www.w3.org/2000/svg"><path d="M8.753 4.265a4.481 4.481 0 00-4.484 4.492 4.481 4.481 0 004.484 4.484 4.481 4.481 0 004.492-4.484 4.481 4.481 0 00-4.492-4.492zm0 7.406a2.923 2.923 0 01-2.914-2.914 2.921 2.921 0 012.914-2.922 2.921 2.921 0 012.922 2.922 2.923 2.923 0 01-2.922 2.914zm5.719-7.59a1.047 1.047 0 00-1.047-1.047 1.047 1.047 0 00-1.047 1.047 1.044 1.044 0 001.047 1.047 1.044 1.044 0 001.051-1.047zm2.981 1.063a5.181 5.181 0 00-1.414-3.668A5.215 5.215 0 0012.366.057c-1.445-.082-5.777-.082-7.223 0a5.207 5.207 0 00-3.668 1.41A5.2 5.2 0 00.061 5.135c-.082 1.445-.082 5.777 0 7.223a5.181 5.181 0 001.415 3.672 5.221 5.221 0 003.668 1.415c1.445.082 5.777.082 7.223 0a5.181 5.181 0 003.667-1.415 5.215 5.215 0 001.419-3.668c.077-1.445.077-5.773 0-7.218zm-1.872 8.769a2.954 2.954 0 01-1.664 1.664c-1.152.457-3.887.352-5.164.352s-4.012.1-5.16-.352a2.954 2.954 0 01-1.66-1.664c-.457-1.156-.352-3.886-.352-5.156s-.1-4.012.352-5.16a2.954 2.954 0 011.664-1.664c1.156-.461 3.886-.356 5.156-.356s4.012-.1 5.16.352a2.954 2.954 0 011.664 1.664c.457 1.152.352 3.887.352 5.16s.109 4.012-.348 5.16z"/></svg><svg viewBox="0 0 70 70" id="key_icon" xmlns="http://www.w3.org/2000/svg"><path d="M70 24.063A24.012 24.012 0 0045.937 0a24.062 24.062 0 00-24.062 24.063 24.041 24.041 0 001.207 7.537L.961 53.726A3.282 3.282 0 000 56.047v10.672A3.281 3.281 0 003.281 70h15.313a3.281 3.281 0 003.281-3.281V61.25h5.469a3.281 3.281 0 003.281-3.281V52.5h5.089a3.271 3.271 0 002.453-1.1l3.283-3.693a24.177 24.177 0 004.488.42A24.062 24.062 0 0070 24.063zM45.937 17.5a6.562 6.562 0 016.563-6.562 6.562 6.562 0 016.562 6.562 6.562 6.562 0 01-6.562 6.563 6.562 6.562 0 01-6.563-6.563z"/></svg><svg viewBox="0 0 18 24" id="marker" xmlns="http://www.w3.org/2000/svg"><path d="M8.075 23.516a1.126 1.126 0 001.85 0C16.736 13.642 18 12.629 18 9a9 9 0 00-9-9 9 9 0 00-9 9c0 3.629 1.264 4.642 8.075 14.516zM9 12.75A3.75 3.75 0 015.25 9 3.75 3.75 0 019 5.25 3.75 3.75 0 0112.75 9 3.75 3.75 0 019 12.75z"/></svg><svg viewBox="0 0 70 55.995" id="partners_icon" xmlns="http://www.w3.org/2000/svg"><path d="M53.377 20.998H36.752v6.125a7.884 7.884 0 01-7.875 7.875 7.884 7.884 0 01-7.875-7.875v-13.3l-7.1 4.266a6.985 6.985 0 00-3.4 5.994v5.173l-8.75 5.053a3.492 3.492 0 00-1.28 4.779l8.75 15.16a3.5 3.5 0 004.78 1.28l11.31-6.53h14.94a7.007 7.007 0 007-7h1.75a3.5 3.5 0 003.5-3.5v-7h.875a2.619 2.619 0 002.625-2.625v-5.25a2.619 2.619 0 00-2.625-2.625zm16.155-4.091l-8.75-15.159a3.5 3.5 0 00-4.78-1.275l-11.309 6.53H33.515a7.053 7.053 0 00-3.713 1.056l-3.664 2.286a3.477 3.477 0 00-1.636 2.964v13.814a4.374 4.374 0 004.375 4.375 4.374 4.374 0 004.375-4.375v-9.625h20.125a6.129 6.129 0 016.125 6.125v3.117l8.75-5.053a3.5 3.5 0 001.28-4.78z"/></svg><svg viewBox="0 0 20 20" id="phone" xmlns="http://www.w3.org/2000/svg"><path d="M.726.962L4.788.025a.944.944 0 011.074.543l1.875 4.375a.935.935 0 01-.27 1.094L5.1 7.973a14.477 14.477 0 006.922 6.922l1.938-2.367a.936.936 0 011.094-.27l4.375 1.875a.949.949 0 01.547 1.078l-.937 4.062a.937.937 0 01-.915.728A18.123 18.123 0 010 1.876.936.936 0 01.726.962z"/></svg><svg viewBox="0 0 20 20" id="plus" xmlns="http://www.w3.org/2000/svg"><g fill="none" stroke="#ffa200" stroke-width="2"><path data-name="Line 7" d="M10 0v20"/><path data-name="Line 8" d="M20 10H0"/></g></svg><svg viewBox="0 0 24 18" id="post" xmlns="http://www.w3.org/2000/svg"><path data-name="Path 74" d="M21.75 0H2.25A2.25 2.25 0 000 2.25v13.5A2.25 2.25 0 002.25 18h19.5A2.25 2.25 0 0024 15.75V2.25A2.25 2.25 0 0021.75 0zm0 2.25v1.913c-1.051.856-2.727 2.187-6.309 4.992-.789.621-2.353 2.113-3.441 2.1-1.088.018-2.652-1.475-3.441-2.1C4.977 6.35 3.3 5.019 2.25 4.163V2.25zm-19.5 13.5v-8.7c1.074.856 2.6 2.056 4.919 3.874C8.194 11.73 9.988 13.511 12 13.5c2 .011 3.774-1.744 4.831-2.576A807.197 807.197 0 0021.75 7.05v8.7z"/></svg><svg viewBox="0 0 69.754 62" id="price_icon" xmlns="http://www.w3.org/2000/svg"><path d="M32.824 17.474l6.576 1.731a1.042 1.042 0 01.8.981 1.067 1.067 0 01-1.1 1.017h-4.317a3.631 3.631 0 01-1.355-.266 1.735 1.735 0 00-1.853.242l-2.3 2.119a1.407 1.407 0 00-.275.322 1.375 1.375 0 00-.2.718 1.382 1.382 0 00.671 1.188 10.18 10.18 0 004.179 1.393v2.143A2.033 2.033 0 0035.75 31h2.1a2.033 2.033 0 002.1-1.938v-2.131c3.988-.436 7-3.754 6.479-7.629a7.344 7.344 0 00-5.629-5.776l-6.572-1.732a1.043 1.043 0 01-.8-.981 1.067 1.067 0 011.1-1.017h4.311a3.632 3.632 0 011.36.266 1.735 1.735 0 001.853-.242l2.3-2.119a1.359 1.359 0 00.263-.315 1.376 1.376 0 00.2-.724 1.383 1.383 0 00-.669-1.187 10.185 10.185 0 00-4.18-1.393V1.936a2.032 2.032 0 00-2.1-1.937h-2.1a2.032 2.032 0 00-2.1 1.937v2.131c-3.983.436-7.005 3.754-6.48 7.629a7.35 7.35 0 005.638 5.778zm35.627 22.257a4.008 4.008 0 00-5.159 0L52.1 48.68a7.672 7.672 0 01-4.817 1.692H32.937A1.938 1.938 0 0131 48.438a1.938 1.938 0 011.937-1.938h9.48a4.019 4.019 0 004.026-3.221 3.8 3.8 0 00.056-.65v-.011a3.877 3.877 0 00-3.874-3.868H23.25a14.216 14.216 0 00-8.973 3.184L8.646 46.5H1.937A1.938 1.938 0 000 48.438v11.624A1.938 1.938 0 001.937 62h43.209a7.733 7.733 0 004.837-1.7L68.3 45.65a3.869 3.869 0 001.457-3.028 3.863 3.863 0 00-1.3-2.894z"/></svg><svg viewBox="0 0 70 70.003" id="repair_icon" xmlns="http://www.w3.org/2000/svg"><path d="M68.513 54.1L52.504 38.088a10.151 10.151 0 00-11.675-1.9L26.256 21.614v-8.49L8.757 0 .004 8.75l13.124 17.5h8.49l14.577 14.572a10.173 10.173 0 001.9 11.678l16.009 16.006a5.083 5.083 0 007.2 0l7.2-7.2a5.108 5.108 0 00.009-7.206zM45.354 30.76A14.384 14.384 0 0155.594 35l2.652 2.65a19.353 19.353 0 005.988-4.033 19.661 19.661 0 005.181-18.688 1.636 1.636 0 00-2.748-.752L56.496 24.348 47.214 22.8l-1.545-9.283L55.84 3.349a1.651 1.651 0 00-.779-2.762 19.694 19.694 0 00-18.675 5.181 19.373 19.373 0 00-5.632 14.164l11.224 11.225a14.89 14.89 0 013.376-.397zm-14.2 11.21l-7.755-7.751L2.564 55.067A8.749 8.749 0 0014.936 67.44l16.9-16.9a14.682 14.682 0 01-.686-8.57zM8.757 64.528a3.281 3.281 0 113.281-3.281 3.291 3.291 0 01-3.281 3.281z"/></svg><svg viewBox="0 0 70 70.012" id="search_icon" xmlns="http://www.w3.org/2000/svg"><path d="M69.048 60.53L55.416 46.9a3.279 3.279 0 00-2.324-.957h-2.229a28.3 28.3 0 006.016-17.5A28.435 28.435 0 0028.44 0 28.435 28.435 0 000 28.44a28.435 28.435 0 0028.44 28.44 28.3 28.3 0 0017.5-6.016v2.229a3.279 3.279 0 00.957 2.324L60.53 69.048a3.268 3.268 0 004.635 0l3.87-3.869a3.3 3.3 0 00.013-4.649zM28.44 45.941a17.491 17.491 0 01-17.5-17.5 17.491 17.491 0 0117.5-17.5 17.491 17.491 0 0117.5 17.5 17.491 17.491 0 01-17.5 17.5z"/></svg><svg viewBox="0 0 65.634 70" id="shield_icon" xmlns="http://www.w3.org/2000/svg"><path d="M61.6 11.438L35.346.499a6.557 6.557 0 00-2.518-.5 6.6 6.6 0 00-2.527.5L4.047 11.438A6.556 6.556 0 000 17.495c0 27.142 15.656 45.9 30.287 52a6.584 6.584 0 005.046 0c11.718-4.882 30.3-21.741 30.3-52a6.565 6.565 0 00-4.033-6.057zM32.83 61.019l-.014-52.1 24.053 10.025c-.452 20.7-11.226 35.7-24.039 42.075z"/></svg><svg viewBox="0 0 70 56" id="ship_icon" xmlns="http://www.w3.org/2000/svg"><path d="M54.317 40.757l7.658-7.657a3.5 3.5 0 00-1.4-5.807L56 25.824V10.5A3.5 3.5 0 0052.5 7h-7V2.625A2.625 2.625 0 0042.875 0h-15.75A2.625 2.625 0 0024.5 2.625V7h-7a3.5 3.5 0 00-3.5 3.5v15.324l-4.571 1.469A3.5 3.5 0 008.025 33.1l7.658 7.658C13.762 45.531 9.361 49 2.625 49A2.625 2.625 0 000 51.625v1.75A2.625 2.625 0 002.625 56c6.674 0 11.758-2.254 15.669-6.5A10.516 10.516 0 0028 56h14a10.516 10.516 0 009.706-6.5c3.91 4.242 8.993 6.5 15.669 6.5A2.625 2.625 0 0070 53.375v-1.75A2.625 2.625 0 0067.375 49c-6.652 0-11.106-3.391-13.058-8.243zM21 14h28v9.574l-12.929-4.156A3.493 3.493 0 0035 19.251a3.5 3.5 0 00-1.071.167L21 23.574z"/></svg><svg viewBox="0 0 20.998 17.61" id="telegram" xmlns="http://www.w3.org/2000/svg"><path d="M20.938 1.603C21.219.286 20.465-.23 19.602.094L.974 7.27c-1.27.5-1.252 1.209-.216 1.533l4.762 1.491 11.063-6.966c.52-.347.994-.155.6.192L8.24 11.606l-.347 4.917a1.212 1.212 0 00.97-.473l2.33-2.241 4.828 3.558c.886.5 1.509.234 1.748-.82z"/></svg><svg viewBox="0 0 22.761 24.003" id="viber" xmlns="http://www.w3.org/2000/svg"><path d="M20.195 2.337c-.6-.548-3-2.3-8.377-2.32 0 0-6.333-.38-9.417 2.452C.685 4.185.081 6.702.015 9.819s-.145 8.957 5.484 10.542v2.419s-.037.98.609 1.177c.778.244 1.238-.5 1.983-1.3.408-.441.97-1.088 1.4-1.58a21.782 21.782 0 007.146-.529c.778-.253 5.18-.816 5.892-6.656.74-6.028-.356-9.835-2.334-11.555zm.651 11.114c-.6 4.875-4.172 5.184-4.828 5.4a20.152 20.152 0 01-6.15.525s-2.437 2.939-3.2 3.7c-.248.248-.52.225-.516-.267 0-.323.019-4.017.019-4.017-4.769-1.324-4.489-6.294-4.436-8.894s.544-4.734 2-6.169c2.608-2.372 7.985-2.02 7.985-2.02 4.542.019 6.717 1.387 7.223 1.847 1.673 1.434 2.527 4.865 1.903 9.895zM14.33 9.664a2.038 2.038 0 00-2.1-2.166.3.3 0 00-.033.6 1.449 1.449 0 011.528 1.589.303.303 0 00.605-.023zm.952.53a.3.3 0 00.6.014 4.105 4.105 0 00-4.111-4.337.3.3 0 00-.042.6 3.5 3.5 0 013.553 3.727zm2.2.628c-.033-4.116-2.813-6.5-6.267-6.525a.3.3 0 000 .6c3.089.023 5.634 2.1 5.662 5.925a.303.303 0 00.605-.001zm-.53 4.6a.837.837 0 00-.17-1.108 12.143 12.143 0 00-2.152-1.543.979.979 0 00-1.248.174l-.45.563a.825.825 0 01-.65.248A5.869 5.869 0 018.33 9.804a.825.825 0 01.248-.656l.563-.45a.979.979 0 00.173-1.247c-.164-.286-.478-.8-.713-1.116-.248-.342-.83-1.036-.83-1.036a.853.853 0 00-1.12-.183h-.009c-.9.506-1.875 1.453-1.561 2.428A14.007 14.007 0 006.3 10.155a15.21 15.21 0 001.44 2.185 12.255 12.255 0 001.987 1.988 18.018 18.018 0 004.791 2.648l.009.014c.975.314 1.922-.67 2.428-1.561z"/></svg><svg viewBox="0 0 61.25 70" id="workman_icon" xmlns="http://www.w3.org/2000/svg"><path d="M30.625 35a17.5 17.5 0 0017.5-17.5A17.5 17.5 0 0030.625 0a17.5 17.5 0 00-17.5 17.5 17.5 17.5 0 0017.5 17.5zm13.1 4.457l-6.537 26.168-4.375-18.594 4.375-7.656H24.063l4.375 7.656-4.375 18.594-6.536-26.168A18.343 18.343 0 000 57.75v5.688A6.564 6.564 0 006.563 70h48.125a6.564 6.564 0 006.562-6.562V57.75a18.343 18.343 0 00-17.527-18.293z"/></svg><svg viewBox="0 0 21.333 15" id="youtube" xmlns="http://www.w3.org/2000/svg"><path d="M20.888 2.347a2.68 2.68 0 00-1.886-1.9C17.338 0 10.667 0 10.667 0S3.996 0 2.332.449a2.681 2.681 0 00-1.886 1.9A28.12 28.12 0 000 7.515a28.12 28.12 0 00.446 5.168 2.641 2.641 0 001.886 1.868C3.996 15 10.667 15 10.667 15s6.671 0 8.335-.449a2.641 2.641 0 001.886-1.868 28.12 28.12 0 00.446-5.168 28.12 28.12 0 00-.446-5.168zm-12.4 8.34V4.343l5.576 3.172z"/></svg></svg>